<?xml version="1.0" encoding="UTF-8" standalone="no"?>
<svg
   xmlns:dc="http://purl.org/dc/elements/1.1/"
   xmlns:cc="http://creativecommons.org/ns#"
   xmlns:rdf="http://www.w3.org/1999/02/22-rdf-syntax-ns#"
   xmlns:svg="http://www.w3.org/2000/svg"
   xmlns="http://www.w3.org/2000/svg"
   xmlns:sodipodi="http://sodipodi.sourceforge.net/DTD/sodipodi-0.dtd"
   xmlns:inkscape="http://www.inkscape.org/namespaces/inkscape"
   inkscape:version="1.0 (4035a4fb49, 2020-05-01)"
   sodipodi:docname="iconmonstr-location-5-gmc-cpm-pin.svg"
   id="svg897"
   version="1.1"
   viewBox="0 0 24 24"
   height="24"
   width="24">
  <metadata
     id="metadata903">
    <rdf:RDF>
      <cc:Work
         rdf:about="">
        <dc:format>image/svg+xml</dc:format>
        <dc:type
           rdf:resource="http://purl.org/dc/dcmitype/StillImage" />
        <dc:title></dc:title>
      </cc:Work>
    </rdf:RDF>
  </metadata>
  <defs
     id="defs901" />
  <sodipodi:namedview
     inkscape:current-layer="svg897"
     inkscape:window-maximized="1"
     inkscape:window-y="42"
     inkscape:window-x="0"
     inkscape:cy="9.4802653"
     inkscape:cx="13.637518"
     inkscape:zoom="45.254834"
     showgrid="false"
     id="namedview899"
     inkscape:window-height="1038"
     inkscape:window-width="1920"
     inkscape:pageshadow="2"
     inkscape:pageopacity="0"
     guidetolerance="10"
     gridtolerance="10"
     objecttolerance="10"
     borderopacity="1"
     bordercolor="#666666"
     pagecolor="#ffffff" />
  <path
     style="display:inline"
     sodipodi:nodetypes="sssssscsss"
     id="path895"
     d="m 6,8 c 0,-3.314 2.686,-6 6,-6 3.314,0 6,2.686 6,6 0,3.314 -2.686,6 -6,6 C 8.686,14 6,11.314 6,8 Z M 4,7.602 C 4,11.8 7.469,16.812 12,24 16.531,16.812 20,11.8 20,7.602 20,3.403 16.199,0 12,0 7.802,0 4,3.403 4,7.602 Z" />
  <path
     id="path925"
     style="display:inline;fill:#0066a7;stroke-width:0.234094"
     d="M 11.999999,2 C 8.6859997,2 6,4.6860001 6,8.0000001 6,11.314 8.6859997,14 11.999999,14 c 3.314,0 6,-2.686 6,-5.9999999 0,-3.314 -2.686,-6.0000001 -6,-6.0000001 z" />
  <text
     transform="scale(1.0297173,0.97114033)"
     id="text1001"
     y="10.039745"
     x="11.842512"
     style="font-style:normal;font-variant:normal;font-weight:normal;font-stretch:normal;font-size:5.39523px;line-height:1.25;font-family:'circles and sticks';-inkscape-font-specification:'circles and sticks';letter-spacing:0px;word-spacing:0px;fill:#000000;fill-opacity:1;stroke:none;stroke-width:1.0116"
     xml:space="preserve"><tspan
       sodipodi:role="line"
       style="font-size:5.39523px;text-align:center;text-anchor:middle;stroke-width:1.0116"
       y="10.039745"
       x="11.842512"
       id="tspan999">{{CPM}}</tspan></text>
</svg>
