<!--
	GMCServer, lightweight service to log, analyze and proxy Geiger counter data.
	Copyright (C) 2020 Vincent Hyvert

	This program is free software: you can redistribute it and/or modify
	it under the terms of the GNU Affero General Public as published by
	the Free Software Foundation, either version 3 of the License, or
	(at your option) any later version.

	This program is distributed in the hope that it will be useful,
	but WITHOUT ANY WARRANTY; without even the implied warranty of
	MERCHANTABILITY or FITNESS FOR A PARTICULAR PURPOSE.  See the
	GNU Affero General Public for more details.

	You should have received a copy of the GNU Affero General Public
	along with this program.  If not, see https://www.gnu.org/licenses/.
-->
<svg version="1.1" viewBox="0 0 24 24" xmlns="http://www.w3.org/2000/svg">
	<path d="m6 8c0-3.314 2.686-6 6-6s6 2.686 6 6-2.686 6-6 6-6-2.686-6-6zm-2-0.398c0 4.198 3.469 9.21 8 16.398 4.531-7.188 8-12.2 8-16.398 0-4.199-3.801-7.602-8-7.602-4.198 0-8 3.403-8 7.602z" fill="#2c2c2c" />
	<path d="m12 2c-3.314 0-6 2.686-6 6 0 3.314 2.686 6 6 6 3.314 0 6-2.686 6-6 0-3.314-2.686-6-6-6z" fill="{color}" stroke-width=".23409" />
	<text transform="scale(1.0297 .97114)" x="11.842512" y="10.039745" fill="#000000" font-family="'circles and sticks'" font-size="5.3952px" letter-spacing="0px" stroke-width="1.0116" word-spacing="0px" style="line-height:1.25">
		<tspan x="11.842512" y="10.039745" font-size="5.3952px" stroke-width="1.0116" text-align="center" text-anchor="middle">
					{cpm}
		</tspan>
	</text>
</svg>
